<?xml version="1.0"?>
<svg xmlns="http://www.w3.org/2000/svg" xmlns:xlink="http://www.w3.org/1999/xlink" xmlns:svgjs="http://svgjs.com/svgjs" version="1.1" width="34" height="34" x="0" y="0" viewBox="0 0 128 128" style="enable-background:new 0 0 512 512" xml:space="preserve">
        <g><path xmlns="http://www.w3.org/2000/svg" d="M94.2,35.63a1.752,1.752,0,0,0-.306-1.886L74.3,12.244a1.752,1.752,0,0,0-1.294-.571H68.75V9.5a4.75,4.75,0,0,0-9.5,0v2.173H54.99a1.752,1.752,0,0,0-1.294.571l-19.59,21.5A1.751,1.751,0,0,0,35.4,36.673h6.035L45.67,74.649a7.726,7.726,0,0,0,5.5,6.582V85.8a1.749,1.749,0,0,0,1.75,1.75H57.75V121.5a1.75,1.75,0,0,0,1.75,1.75h9a1.75,1.75,0,0,0,1.75-1.75V87.547h4.833a1.749,1.749,0,0,0,1.75-1.75V81.231a7.722,7.722,0,0,0,5.5-6.577l4.236-37.981H92.6A1.749,1.749,0,0,0,94.2,35.63ZM62.75,9.5a1.25,1.25,0,0,1,2.5,0v2.173h-2.5Zm-13.6,64.766L44.956,36.673H62.25V78.047H53.344A4.235,4.235,0,0,1,49.149,74.266Zm17.6,45.484h-5.5v-32.2h5.5Zm6.583-35.7H54.667v-2.5H73.333Zm5.517-9.776a4.233,4.233,0,0,1-4.194,3.776H65.75V36.673H83.044Zm-39.488-41.1,16.4-18H72.236l16.4,18Z" fill="#ffffff" data-original="#000000" style=""/><path xmlns="http://www.w3.org/2000/svg" d="M69.181,18.129a1.752,1.752,0,0,0-.116,2.473l8.657,9.5a1.751,1.751,0,0,0,2.588-2.358l-8.657-9.5A1.752,1.752,0,0,0,69.181,18.129Z" fill="#ffffff" data-original="#000000" style=""/><path xmlns="http://www.w3.org/2000/svg" d="M24.19,57.631H35.61a1.75,1.75,0,0,0,0-3.5H24.19a1.75,1.75,0,1,0,0,3.5Z" fill="#ffffff" data-original="#000000" style=""/><path xmlns="http://www.w3.org/2000/svg" d="M36.517,65.9,23.3,73.757a1.75,1.75,0,1,0,1.787,3.009L38.3,68.913A1.75,1.75,0,1,0,36.517,65.9Z" fill="#ffffff" data-original="#000000" style=""/><path xmlns="http://www.w3.org/2000/svg" d="M103.81,54.131H92.39a1.75,1.75,0,0,0,0,3.5h11.42a1.75,1.75,0,0,0,0-3.5Z" fill="#ffffff" data-original="#000000" style=""/><path xmlns="http://www.w3.org/2000/svg" d="M104.7,73.757,91.483,65.9A1.75,1.75,0,1,0,89.7,68.913l13.22,7.853a1.75,1.75,0,1,0,1.787-3.009Z" fill="#ffffff" data-original="#000000" style=""/><path xmlns="http://www.w3.org/2000/svg" d="M23.3,38.005l10.63,6.31a1.75,1.75,0,0,0,1.787-3.01l-10.63-6.31a1.75,1.75,0,0,0-1.787,3.01Z" fill="#ffffff" data-original="#000000" style=""/><path xmlns="http://www.w3.org/2000/svg" d="M91.675,43.7a1.747,1.747,0,0,0,2.4.612l10.63-6.31a1.75,1.75,0,0,0-1.787-3.01l-10.63,6.31A1.75,1.75,0,0,0,91.675,43.7Z" fill="#ffffff" data-original="#000000" style=""/></g>
</svg>
